<svg width="100" height="100" viewBox="0 0 100 100" fill="none" xmlns="http://www.w3.org/2000/svg">
<circle cx="50" cy="50" r="50" fill="#00A3F1"/>
<path d="M53.0078 76.875C53.4912 77.0182 54.1447 77.0898 54.9683 77.0898C55.8097 77.0898 56.6691 76.9198 57.5464 76.5796C58.4237 76.2573 59.1846 75.8008 59.8291 75.21C60.9033 74.2432 61.8791 72.7214 62.7563 70.6445L51.3696 42.2852H57.0898L65.0928 64.3604L72.2632 42.2852H77.9297L66.543 73.4106C65.6836 75.7381 64.493 77.5195 62.9712 78.7549C60.966 80.3662 58.2894 81.1719 54.9414 81.1719C54.637 81.1719 54.3237 81.154 54.0015 81.1182L53.0078 81.0107V76.875Z" fill="white"/>
<path d="M46.4321 57.395C45.161 58.2902 43.5317 58.9974 41.5444 59.5166C39.5571 60.0179 37.1222 60.2686 34.2397 60.2686C31.3752 60.2686 28.4837 60.0985 25.5654 59.7583V54.5483C28.1794 55.1392 30.8112 55.4346 33.4609 55.4346C36.1107 55.4346 38.098 55.2913 39.4229 55.0049C40.7477 54.7005 41.813 54.3066 42.6187 53.8232C44.1047 52.9281 44.8477 51.7643 44.8477 50.332C44.8477 49.222 44.5612 48.3626 43.9883 47.7539C43.0752 46.805 41.7593 45.9367 40.0405 45.1489L33.1655 42.0068C30.8022 40.8968 29.1283 39.8674 28.1436 38.9185C26.0309 36.8774 24.9746 34.5142 24.9746 31.8286C24.9746 29.0715 26.1742 26.8424 28.5732 25.1416C31.2051 23.2796 34.9469 22.3486 39.7988 22.3486C42.932 22.3486 45.7965 22.474 48.3926 22.7246V27.854C46.1904 27.3527 43.7287 27.1021 41.0073 27.1021C38.3039 27.1021 36.3345 27.2453 35.0991 27.5317C33.8817 27.8003 32.9238 28.1494 32.2256 28.5791C30.9544 29.3669 30.3188 30.4053 30.3188 31.6943C30.3188 32.9476 30.7217 33.986 31.5273 34.8096C32.2435 35.5078 33.5505 36.3135 35.4482 37.2266L42.5112 40.5835C44.8566 41.6935 46.4948 42.7409 47.4258 43.7256C48.3747 44.7103 49.0729 45.7039 49.5205 46.7065C49.9681 47.6912 50.1919 48.8818 50.1919 50.2783C50.1919 51.6569 49.8875 52.9639 49.2788 54.1992C48.6701 55.4167 47.7212 56.4819 46.4321 57.395Z" fill="white"/>
</svg>
